<!DOCTYPE svg PUBLIC "-//W3C//DTD SVG 1.1//EN" "http://www.w3.org/Graphics/SVG/1.1/DTD/svg11.dtd">
<!-- Uploaded to: SVG Repo, www.svgrepo.com, Transformed by: SVG Repo Mixer Tools -->
<svg fill="#ffffff" width="800px" height="800px" viewBox="0 0 14 14" role="img" focusable="false" aria-hidden="true" xmlns="http://www.w3.org/2000/svg">
<g id="SVGRepo_bgCarrier" stroke-width="0"/>
<g id="SVGRepo_tracerCarrier" stroke-linecap="round" stroke-linejoin="round"/>
<g id="SVGRepo_iconCarrier">
<path d="M4.750805 9.878685l-.32787.32787q-.0656.0656-.15082.0656-.0852 0-.15082-.0656l-3.055736-3.05574q-.065574-.0656-.065574-.15082 0-.0853.06557-.15082l3.055736-3.05574q.0656-.0656.15082-.0656.0853 0 .15082.0656l.32787.32787q.0656.0656.0656.15082 0 .0852-.0656.15082l-2.57705 2.57705 2.57705 2.57705q.0656.0656.0656.15082 0 .0852-.0656.15082z"/>
<path fill="gray" d="M8.626215 2.881965l-2.4459 8.46557q-.0262.0853-.10164.12787-.0754.0426-.1541.0164l-.40656-.11147q-.0852-.0262-.12787-.10164-.0426-.0754-.0164-.16066l2.4459-8.46557q.0262-.0853.10164-.12787.0754-.0426.1541-.0164l.40656.11147q.0852.0262.12787.10164.0426.0754.0164.16066z"/>
<path d="M12.934415 7.150815l-3.05574 3.05574q-.0656.0656-.15082.0656-.0853 0-.15082-.0656l-.32787-.32787q-.0656-.0656-.0656-.15082 0-.0853.0656-.15082l2.57705-2.57705-2.57705-2.57705q-.0656-.0656-.0656-.15082 0-.0852.0656-.15082l.32787-.32787q.0656-.0656.15082-.0656.0852 0 .15082.0656l3.05574 3.05574q.0656.0656.0656.15082 0 .0852-.0656.15082z"/>
</g>
</svg>